<?xml version="1.0" encoding="UTF-8" standalone="no"?>
<!-- Created with Inkscape (http://www.inkscape.org/) -->

<svg
   xmlns:dc="http://purl.org/dc/elements/1.1/"
   xmlns:cc="http://creativecommons.org/ns#"
   xmlns:rdf="http://www.w3.org/1999/02/22-rdf-syntax-ns#"
   xmlns:svg="http://www.w3.org/2000/svg"
   xmlns="http://www.w3.org/2000/svg"
   xmlns:sodipodi="http://sodipodi.sourceforge.net/DTD/sodipodi-0.dtd"
   xmlns:inkscape="http://www.inkscape.org/namespaces/inkscape"
   width="42.776821mm"
   height="42.776817mm"
   viewBox="0 0 151.57142 151.57141"
   id="svg2"
   version="1.1"
   inkscape:version="0.91 r13725"
   sodipodi:docname="logo.svg"
   inkscape:export-filename="/home/fabio/programmi/projects/bambooth/renderer/images/logo.png"
   inkscape:export-xdpi="29.808844"
   inkscape:export-ydpi="29.808844">
  <defs
     id="defs4" />
  <sodipodi:namedview
     id="base"
     pagecolor="#ffffff"
     bordercolor="#666666"
     borderopacity="1.0"
     inkscape:pageopacity="0.0"
     inkscape:pageshadow="2"
     inkscape:zoom="1.4142136"
     inkscape:cx="89.250279"
     inkscape:cy="73.990205"
     inkscape:document-units="px"
     inkscape:current-layer="layer1"
     showgrid="false"
     fit-margin-top="0"
     fit-margin-left="0"
     fit-margin-right="0"
     fit-margin-bottom="0"
     inkscape:window-width="1276"
     inkscape:window-height="761"
     inkscape:window-x="0"
     inkscape:window-y="18"
     inkscape:window-maximized="0" />
  <metadata
     id="metadata7">
    <rdf:RDF>
      <cc:Work
         rdf:about="">
        <dc:format>image/svg+xml</dc:format>
        <dc:type
           rdf:resource="http://purl.org/dc/dcmitype/StillImage" />
        <dc:title></dc:title>
      </cc:Work>
    </rdf:RDF>
  </metadata>
  <g
     inkscape:label="Livello 1"
     inkscape:groupmode="layer"
     id="layer1"
     transform="translate(-172.78571,-170.86221)">
    <g
       id="g4274">
      <path
         sodipodi:nodetypes="ccccc"
         inkscape:connector-curvature="0"
         id="rect4271"
         d="m 179.57435,177.1748 c 59.64552,29.16003 139.17286,0 139.17286,0 -23.19548,89.46828 0,139.17286 0,139.17286 -80.19008,-27.17184 -139.17286,0 -139.17286,0 23.19548,-76.21372 0,-139.17286 0,-139.17286 z"
         style="color:#000000;display:inline;overflow:visible;visibility:visible;fill:#d4ff2a;fill-opacity:0.93333334;fill-rule:evenodd;stroke:#707070;stroke-width:3.00000036;stroke-linecap:butt;stroke-linejoin:miter;stroke-miterlimit:4;stroke-dasharray:none;stroke-dashoffset:0;stroke-opacity:1;marker:none;enable-background:accumulate" />
      <path
         style="fill:#732600;fill-opacity:1;fill-rule:evenodd;stroke:none;stroke-width:0.20180759;stroke-linecap:butt;stroke-linejoin:miter;stroke-miterlimit:4;stroke-dasharray:none;stroke-opacity:1"
         d="m 225.62766,240.39613 c 4.53959,-0.40664 7.02288,-0.45873 11.13702,-0.86538 7.53706,-0.61502 19.96694,-2.01005 28.1422,-3.6178 1.99753,-0.46501 4.20777,-0.64639 5.77989,-0.26049 1.4095,0.53785 3.10257,1.50115 4.29931,3.17354 0.6049,0.85911 -0.27922,1.86003 -1.94342,1.72641 -2.32697,-0.12927 -3.51947,-0.40036 -5.84642,-0.52963 -9.41401,-0.28171 -18.04802,0.4293 -30.36927,2.20396 -1.61599,0.24602 -4.29558,0.91748 -6.05336,1.02167 -0.91121,0.23781 -1.68055,-0.0917 -2.52085,-0.35021 -1.09887,-0.58174 -1.98496,-0.87984 -3.08383,-1.46159 -0.50892,-0.25227 -0.23783,-0.85911 0.45873,-1.04048 z"
         id="path2300"
         sodipodi:nodetypes="cccccccccccc"
         inkscape:connector-curvature="0" />
      <path
         sodipodi:nodetypes="cccccccccc"
         id="path2375"
         d="m 234.99673,231.96102 c 1.48413,0.56071 -0.0951,2.62818 -0.78764,4.67207 -0.46345,0.85178 -1.07164,5.99551 -3.1732,11.07012 -1.61555,4.00907 -5.85665,9.00338 -8.7311,10.58889 -0.93443,0.26765 -1.0855,0.32778 -0.87871,-0.42257 2.08223,-3.06054 5.39131,-8.89986 5.91155,-10.45946 1.59581,-3.94864 2.96368,-10.8802 2.455,-11.838 -0.30959,-1.30691 -0.66096,-1.31793 -0.97753,-1.98229 -0.14361,-0.82893 0.8157,-1.70128 1.17554,-2.46933 0.85654,-0.77016 2.60725,-0.22315 5.00609,0.84057 z"
         style="fill:#732600;fill-opacity:1;fill-rule:evenodd;stroke:none;stroke-width:0.17446586;stroke-linecap:butt;stroke-linejoin:miter;stroke-miterlimit:4;stroke-dasharray:none;stroke-opacity:1"
         inkscape:connector-curvature="0" />
      <path
         style="fill:#732600;fill-opacity:1;fill-rule:evenodd;stroke:none;stroke-width:0.18184882;stroke-linecap:butt;stroke-linejoin:miter;stroke-miterlimit:4;stroke-dasharray:none;stroke-opacity:1"
         d="m 238.98332,240.91827 c 0.67078,-0.45888 3.30722,0.53517 4.21626,1.30991 0.98283,0.75586 -0.26806,2.11484 -0.68501,5.50241 -0.5063,9.19119 -0.25477,19.1558 -0.25477,28.48405 0.0815,2.84069 -1.38556,6.09261 -1.89965,6.13711 -0.33689,-0.26958 -1.95445,-1.33416 -2.44027,-4.50957 -0.005,-3.66451 0.73931,-14.16215 0.79411,-16.51079 0,-7.30421 0.33989,-12.60593 -0.22598,-15.71582 -0.11438,-0.76461 -0.55637,-1.52921 -0.93881,-2.32123 -0.46101,-0.6477 0.82978,-1.52591 1.43412,-2.37607 z"
         id="path2377"
         sodipodi:nodetypes="cccccccccc"
         inkscape:connector-curvature="0" />
      <path
         sodipodi:nodetypes="cccccccccc"
         id="path2379"
         d="m 261.97868,237.36672 c 0.67078,-0.45888 3.30721,0.53516 4.21626,1.3099 0.98283,0.75587 -0.26806,2.11484 -0.68501,5.50243 -0.50631,9.19117 -0.25476,20.97651 -0.25476,30.30475 0.0815,2.8407 -1.38557,6.09262 -1.89966,6.13713 -0.33689,-0.2696 -1.95445,-1.33417 -2.44026,-4.50958 -0.005,-3.66451 0.73929,-14.16215 0.7941,-16.5108 0,-7.3042 0.33989,-14.42664 -0.22598,-17.53654 -0.11438,-0.7646 -0.55637,-1.52922 -0.93881,-2.32123 -0.46101,-0.6477 0.82978,-1.52591 1.43412,-2.37606 z"
         style="fill:#732600;fill-opacity:1;fill-rule:evenodd;stroke:none;stroke-width:0.18184882;stroke-linecap:butt;stroke-linejoin:miter;stroke-miterlimit:4;stroke-dasharray:none;stroke-opacity:1"
         inkscape:connector-curvature="0" />
      <path
         sodipodi:nodetypes="cccccccccc"
         id="path2381"
         d="m 263.10057,272.17219 c 0.82381,1.2219 1.40089,2.71794 1.78606,4.37847 0.56279,1.4267 -0.71116,3.81291 -1.82061,5.65082 -0.87567,1.02583 -2.08029,1.80494 -3.01077,1.02146 -1.32002,-1.93604 -3.70921,-4.74934 -4.7825,-5.64367 -0.77475,-0.61603 -1.30276,-1.34169 -1.58404,-1.84805 0.0518,-0.92054 1.5292,-0.0318 2.37605,0.28129 1.05603,0.352 2.2217,0.75886 3.27774,1.11087 0.55542,0.16884 1.0012,-0.18317 1.39215,-1.02861 0.88002,-1.40805 1.56815,-2.32265 2.36592,-3.92258 z"
         style="fill:#732600;fill-opacity:1;fill-rule:evenodd;stroke:none;stroke-width:0.17446586;stroke-linecap:butt;stroke-linejoin:miter;stroke-miterlimit:4;stroke-dasharray:none;stroke-opacity:1"
         inkscape:connector-curvature="0" />
      <path
         style="fill:#732600;fill-opacity:1;fill-rule:evenodd;stroke:none;stroke-width:0.17446586;stroke-linecap:butt;stroke-linejoin:miter;stroke-miterlimit:4;stroke-dasharray:none;stroke-opacity:1"
         d="m 257.74482,230.72471 c 1.48414,0.56072 -0.0951,2.62818 -0.78762,4.67206 -0.46347,0.85179 -1.07165,5.99552 -3.17321,11.07013 -1.61556,4.00907 -5.85666,9.00337 -8.7311,10.58889 -0.93443,0.26765 -1.0855,0.32778 -0.87871,-0.42257 2.08222,-3.06055 5.3913,-8.89986 5.91155,-10.45946 1.59581,-3.94863 2.96368,-10.8802 2.455,-11.83801 -0.3096,-1.3069 -0.66095,-1.31792 -0.97753,-1.98227 -0.14361,-0.82894 0.8157,-1.70129 1.17555,-2.46934 0.85653,-0.77016 2.60724,-0.22315 5.00607,0.84057 z"
         id="path2385"
         sodipodi:nodetypes="cccccccccc"
         inkscape:connector-curvature="0" />
      <path
         inkscape:connector-curvature="0"
         id="path3445"
         d="m 213.54599,251.40235 c 0,0 -21.18777,-45.16339 37.35738,-41.81796 58.54513,3.34544 31.78163,35.12709 31.78163,35.12709"
         style="color:#000000;display:inline;overflow:visible;visibility:visible;opacity:1;fill:none;fill-opacity:1;fill-rule:nonzero;stroke:#732600;stroke-width:6.86929607;stroke-linecap:butt;stroke-linejoin:miter;stroke-miterlimit:4;stroke-dasharray:none;stroke-dashoffset:0;stroke-opacity:1;marker:none;marker-start:none;marker-mid:none;marker-end:none;enable-background:accumulate" />
    </g>
  </g>
</svg>
